<svg xmlns="http://www.w3.org/2000/svg" xmlns:xlink="http://www.w3.org/1999/xlink" fill="#cbd819" height="800px" width="800px" version="1.1" id="Layer_1" viewBox="0 0 512 512" xml:space="preserve">
<g>
	<g>
		<path d="M0,71.373v369.255h512V71.373H0z M263.608,173.539h132.12v74.855h-132.12V173.539z M263.608,263.608h132.12v74.855    h-132.12V263.608z M15.215,338.461V173.539h85.844v164.924H15.215V338.461z M248.393,338.463h-64.404v15.215h64.404v71.737H15.215    v-71.738h148.486v-15.215h-47.428v-74.854h132.12V338.463z M248.393,248.393h-132.12v-74.855h132.12V248.393z M248.393,158.324    H15.215V86.587h233.179V158.324z M496.786,425.413H263.608v-71.737h233.179V425.413z M496.786,338.463h-85.844V173.539h85.844    V338.463z M496.786,158.324h-0.001H263.608V86.587h233.179V158.324z" fill="#cbd819"/>
	</g>
</g>
</svg>